# xmcd CD database file
#
# Track frame offsets:
#	150
#	10088
#	16360
#	29167
#	37917
#	57413
#	67272
#	78293
#	105007
#	120875
#	140842
#	159674
#	178082
#
# Disc length: 2404 seconds
#
# Revision: 1
# Processed by: cddbd v1.5.2PL0 Copyright (c) Steve Scherf et al.
# Submitted via: CDex 1.70beta2
#
DISCID=a509620d
DTITLE=Ivonne Delaflor - The Soulmate Called God
DYEAR=2004
DGENRE=New Age
TTITLE0=Soulmate Prayer
TTITLE1=My Name In The Sand
TTITLE2=Sourceful Prayer/ Traveling
TTITLE3=The Gift/ THe Dove
TTITLE4=Illusion As Myself/ The Face Of God/ Words You Don't Say
TTITLE5=Melting
TTITLE6=Thank You
TTITLE7=Contemplations To Inspire The Heart
TTITLE8=The Time Has Come
TTITLE9=Response From Your Soulmate
TTITLE10=Positive Thinking/ Soul of Love/
TTITLE11=Power Of Choice/ Leap Of Trust
TTITLE12=All Is One
EXTD=YEAR: 2004
EXTT0=
EXTT1=
EXTT2=
EXTT3=
EXTT4=
EXTT5=
EXTT6=
EXTT7=
EXTT8=
EXTT9=
EXTT10=
EXTT11=
EXTT12=
PLAYORDER=
